Patient4_TMGait_0pt7_01_left_42_EMG.mot
version=1
nRows=30
nColumns=33
inDegrees=no
endheader
time	1LAddLong	2LGlutMax	3LGlutMed	4LIliopsoas	5LSemiMemb	6LBicFemLong	7LRecFem	8LVastMed	9LVastLat	10LGasMed	11LTibAnt	12lTibPost	13LPeroneusLong	14LSol	15LExtDigLong	16LFlexDigLong	17RAddLong	18RGlutMax	19RGlutMed	20RIliopsoas	21RSemiMemb	22RBicFemLong	23RRecFem	24RVastMed	25RVastLat	26RGasMed	27RTibAnt	28RTibPost	29RPeroneusLong	30RSol	31RExtDigLong	32RFlexDigLong
49.858	0.014191	0.48477	-0.047607	0.027008	0.016479	0.041504	-0.00061	0.006256	0.14023	-0.048676	0.091858	0.005035	0.10178	-0.086517	-0.056458	0.008545	0.001984	0.053406	-0.17609	-0.029449	0.049286	-0.024872	0.28961	0.016327	0.029144	-0.014191	0.15564	-0.001678	-0.69809	-0.028076	0.001373	-0.029144
49.859	0.000305	0.53436	-0.081635	0.00061	-0.033569	0.027161	0.010681	0.009918	0.13504	-0.052795	-0.076904	-0.002136	0.19043	-0.015564	-0.1088	0.006409	-0.000763	-0.04425	-0.85159	-0.040894	0.030823	-0.041046	0.19318	-0.012054	-0.008087	-0.00946	-0.082703	-0.002289	0.57831	0.049744	-0.004425	-0.018158
49.86	0.002441	0.59647	-0.15106	-0.006866	-0.053864	-0.041046	0.001221	-0.001373	0.13184	-0.023804	0.007477	0.002136	0.10529	-0.023041	-0.056	-0.00473	-0.000916	-0.069427	-0.54764	-0.08606	0.071411	-0.0383	0.11932	0.040436	-0.063477	-0.01297	-0.18463	-0.002289	1.1583	0.047455	-0.00061	-0.005493
49.861	0.007477	0.62134	-0.19318	0.000458	-0.060425	-0.012207	-0.0177	0.004425	0.11719	-0.009918	-0.000916	0.002747	0.058441	-0.025177	-0.004272	0.001678	0.023651	-0.062866	-0.24185	-0.084686	0.046692	-0.080261	0.22324	0.002289	-0.042114	-0.018616	-0.070648	0.000305	0.62515	-0.007324	-0.001526	-0.016327
49.862	0.009613	0.62576	-0.16617	0.004425	-0.041504	-0.037842	-0.02655	0.002289	0.12283	-0.017395	-0.024872	0.000763	0.082703	-0.034637	-0.007782	-0.000458	0.012512	0.001984	0.065918	-0.1004	0.011902	-0.069275	0.056305	-0.075531	-0.02594	-0.021362	0.001068	0.000153	0.62057	-0.042419	-0.002136	-0.019379
49.863	0.033264	0.7048	-0.11276	0.021973	0.018311	-0.033264	-0.008087	0.000153	0.11612	-0.031128	-0.040894	-0.001678	0.091705	-0.027924	0.01358	-0.00061	-0.0177	0.053406	1.0191	-0.014954	-0.06958	-0.027313	-0.35309	-0.24155	0.042572	-0.012207	0.027313	0.001221	0.55405	-0.10544	0.007935	-0.009766
49.864	0.041809	0.6247	-0.007477	0.008087	0.069427	0.005646	-0.005646	-0.003052	0.11231	-0.072632	-0.11749	0.002747	0.089417	-0.036163	0.019989	-0.000916	-0.024261	-0.029907	0.37323	0.14053	-0.072784	-0.054169	-0.37064	-0.23621	0.095215	-0.001068	0.17075	-0.000763	1.4679	-0.14557	-0.001068	-0.002136
49.865	0.027771	0.63095	0.10346	0.012817	0.074921	-0.017395	0.002747	-0.003357	0.1239	-0.094299	-0.097046	-0.001068	0.1181	-0.033264	0.005646	-0.003052	-0.019226	-0.13153	0.10483	0.098572	-0.11765	-0.096283	-0.10254	-0.02121	-0.027313	0.00473	0.22278	-0.002136	0.27451	-0.063782	-0.000153	0.002136
49.866	0.020294	0.62515	0.059662	0.006866	0.037079	-0.001373	-0.042572	0.013885	0.11276	-0.033722	-0.001984	0.001221	0.097046	-0.017242	0.22873	0.001526	-0.016785	-0.14694	0.22415	-0.002899	-0.097046	-0.13092	0.025024	0.14069	-0.018311	0.001221	0.14175	-0.010529	-0.99503	-0.019226	-0.002136	-0.00351
49.867	0.020599	0.6807	0.070648	-0.000458	0.00351	0.025635	-0.029602	0.005341	0.11581	0.002747	0.022278	0.001984	0.088196	-0.010376	0.18509	-0.003204	-0.018768	-0.14984	0.080872	0.000763	-0.09903	-0.095673	0.10452	0.083313	-0.015106	-0.000763	0.4306	0.001984	-1.4363	-0.058441	-0.002899	-0.006714
49.868	0.023651	0.67917	0.050049	-0.011292	0.001984	0.020447	-0.023499	0.004883	0.10498	0.018158	0.021057	0.001984	0.070496	-0.06134	-0.044556	0.001678	-0.021667	-0.17502	-0.32761	0.094757	-0.098877	-0.032043	-0.27084	-0.052948	-0.041962	0.006104	-0.11215	-0.000916	-0.98694	-0.1091	0.001373	-0.003357
49.869	0.013123	0.62515	-0.023193	-0.007629	0.021973	0.014801	-0.028839	0.003204	0.093689	0.034943	-0.046539	0.002441	0.11002	-0.079041	-0.19302	0.000153	-0.027161	-0.17288	-0.40634	0.1831	0.032349	-0.0383	-0.46951	-0.16586	-0.009918	0.009308	-0.43549	-0.002441	0.38727	-0.085907	0	-0.003967
49.87	0.011902	0.61905	0.040588	0.003662	0.021515	0.020447	-0.037537	0.002594	0.075836	0.016937	-0.011444	-0.004272	0.099182	-0.11688	-0.19134	-0.003815	-0.012054	-0.20172	0.71411	0.055084	-0.005341	-0.050812	-0.18997	-0.10696	0.061493	0.006104	-0.058441	-0.000916	0.34973	-0.19012	0.000916	-0.013885
49.871	0.001068	0.57785	-0.000153	-0.003204	-0.007782	0.016785	-0.028534	0.00824	0.070038	0.002594	0.013428	-0.003204	0.093231	-0.10391	-0.06897	-0.008392	0.002289	-0.20279	1.1314	-0.049438	-0.00473	0.000305	0.023193	-0.093689	-0.022736	0.011597	-0.23529	0.00061	0.35385	-0.22553	-0.002899	-0.011444
49.872	0.000763	0.56168	0.002289	0.009766	-0.004883	0.002747	-0.029144	0.002441	0.072632	-0.012665	0.074463	-0.002747	0.080566	-0.12756	-0.039978	0.001221	0.00412	-0.2179	0.59158	-0.12848	-0.013275	-0.003204	0.016785	-0.054779	-0.03891	0.013275	-0.16556	-0.000763	0.28183	-0.1149	-0.004272	-0.008392
49.873	-0.006104	0.53451	-0.013275	0.011597	-0.032501	0.036469	-0.047455	0.006256	0.056458	-0.027618	0.080566	0.003662	0.078583	-0.13901	-0.013733	-0.007477	0.004272	-0.23102	-0.41199	-0.07019	-0.012817	-0.024414	0.027313	0.013733	0.03479	0.008698	-0.055084	0.003204	0.17807	-0.084534	-0.003815	-0.014343
49.874	0.004425	0.50888	-0.068817	0.023804	-0.039063	0.027618	-0.039215	0.005035	0.066376	-0.075684	0.009155	0.001678	0.096283	-0.14374	-0.002289	0.007172	0.011597	-0.20294	-0.78125	0.004272	-0.04425	-0.072937	0.12787	-0.081329	-0.00824	0.014801	0.046234	-0.003815	-0.37094	-0.026855	-0.000305	-0.016479
49.875	0.013275	0.49454	-0.095215	0.016022	-0.008698	0.000763	-0.0354	-0.001068	0.074615	0.010529	-0.1857	-0.001221	0.11932	-0.099182	0.083313	0.005035	0.035553	-0.19211	-0.21866	0.019836	-0.018311	-0.081787	-0.035706	-0.11185	-0.06958	0.009003	-0.09491	-0.006104	-0.58685	0.046539	-0.00412	-0.023804
49.876	0.027771	0.4686	-0.060577	0.011292	-0.001831	0.025787	-0.063324	0.008087	0.064087	-0.013885	-0.18524	0.001221	0.0737	-0.10529	0.16678	0.001221	0.039978	-0.17761	0.30716	0.001831	0.021973	-0.06485	-0.063629	-0.078888	-0.15259	-0.002289	-0.65109	-0.00473	-0.28229	0.17166	0.001221	-0.019531
49.877	0.027313	0.47119	0.005188	-0.001068	-0.013123	-0.002594	-0.071259	-0.003052	0.064392	-0.019073	-0.09079	0.007172	0.063782	-0.12421	0.083771	0.015411	0.017395	-0.24551	0.15411	0.033417	-0.15854	-0.00412	-0.042267	-0.10544	-0.093994	-0.019836	-0.33646	-0.006409	-0.011597	0.18341	-0.001831	-0.013733
49.878	0.022278	0.42709	0.059967	-0.005341	-0.041504	-0.057831	-0.068817	-0.006714	0.057831	-0.032959	0.076752	0.007019	0.070801	-0.079803	0.034943	0.009918	-0.032501	-0.27863	-0.26794	0.057678	-0.21896	-0.00061	-0.026703	-0.048218	-0.053711	-0.020752	0.36667	-0.002899	-0.34256	0.078735	-0.009003	-0.010834
49.879	0.021667	0.42709	0.041046	0.014648	0.005646	-0.10971	-0.060577	0.000305	0.04715	-0.027771	0.13382	0.000763	0.066681	-0.001831	0.022736	0.015259	-0.03067	-0.27603	-0.19669	0.057983	-0.02655	-0.063782	-0.071259	0.076294	-0.055847	-0.013885	0.67856	-0.002136	-0.42648	0.0177	-0.007324	-0.01358
49.88	0.01297	0.38361	0.014954	0.002899	0.027771	-0.06897	-0.047913	0.00351	0.043335	-0.026398	0.12299	0.000153	0.046844	-0.082397	-0.012512	0.00351	-0.02533	-0.23529	0.26718	-0.007019	0.003052	-0.056152	-0.1355	0.082092	0.000153	-0.010834	0.48004	-0.003662	-0.18387	0.009003	-0.007935	-0.014954
49.881	0.011292	0.37964	-0.02121	-0.003052	0.022736	-0.044098	-0.059814	0.003967	0.03479	-0.022278	0.092468	0.006256	0.004425	-0.064697	-0.032349	-0.007172	-0.018616	-0.2829	0.036926	-0.011444	-0.066528	-0.046844	-0.057678	0.014343	-0.012207	-0.006409	0.27039	0	-0.70587	-0.090332	0.002289	-0.009308
49.882	0.001221	0.34592	-0.019531	0.005646	0.023041	-0.031433	-0.066681	0.00412	0.034485	-0.023651	0.067596	0.009308	0.014038	-0.048523	-0.049286	0.002899	0.014496	-0.29816	0.084686	0.000763	-0.05249	-0.056152	0.004578	-0.018311	-0.020599	-0.010223	0.079193	0.000458	0.23041	-0.1915	-0.002441	-0.00061
49.883	0.007172	0.31052	-0.05249	0.010986	0.028992	-0.030212	-0.072174	-0.00061	0.035095	-0.020905	0.005493	0.001984	0.055695	0.017548	-0.054016	0.010071	0.025024	-0.2771	0.5722	-0.15442	-0.012817	-0.065918	-0.060577	0.023499	-0.003662	0.003967	-0.092621	0.001068	0.36667	-0.29358	-0.001373	-0.000916
49.884	0.018463	0.28976	-0.075684	0.016479	0.008698	0.021515	-0.072784	0.010834	0.02533	-0.014648	-0.025177	-0.002747	0.055084	-0.044556	-0.04425	-0.002136	0.034637	-0.2356	1.1	-0.1239	0.009308	-0.10071	-0.1181	0.020294	-0.060272	0.010376	-0.062561	0.001526	-0.811	-0.24643	-0.005188	0.003967
49.885	0.017242	0.25986	-0.005798	0.019531	0.000153	0.052185	-0.070953	0.004272	0.030212	-0.023651	-0.012207	0.002136	0.036163	-0.10101	-0.069885	-0.000305	0.011749	-0.29388	0.27695	-0.044861	-0.18814	-0.039215	-0.10925	-0.043488	-0.091553	-0.016174	-0.01709	-0.000305	-0.87738	-0.016022	-0.000305	-0.009308
49.886	0.007782	0.25497	0.026398	0.003815	0.015564	0.071411	-0.074921	0.007782	0.025482	-0.022888	0.003357	0.003662	0.030823	-0.10315	-0.082397	0.003967	-0.025024	-0.33844	-0.078583	0.11475	-0.27161	0.038452	-0.12253	0.034332	-0.10971	-0.020142	0.24658	0.003662	0.40817	0.031281	0	-0.019226
49.887	0.002289	0.23346	-0.005798	0.000305	-0.017242	0.075989	-0.067444	0.007782	0.019684	-0.018005	0.018311	-0.001373	0.010529	-0.096893	-0.057678	0.012054	-0.037689	-0.27817	-0.4776	0.2684	0.036469	0.023193	-0.17685	0.090332	-0.053101	-0.020294	0.45776	0	1.1366	0.035248	-0.005951	-0.01709
